<svg xmlns="http://www.w3.org/2000/svg" width="860" height="748" viewBox="0 0 860 748">
<defs>
  <linearGradient id="hdr" x1="0" y1="0" x2="1" y2="0">
    <stop offset="0%" stop-color="#1a1040"/>
    <stop offset="100%" stop-color="#0d1117"/>
  </linearGradient>
  <clipPath id="bar-clip">
    <rect x="28" y="0" width="804" height="12" rx="6"/>
  </clipPath>
  <filter id="glow">
    <feGaussianBlur stdDeviation="2" result="blur"/>
    <feComposite in="SourceGraphic" in2="blur" operator="over"/>
  </filter>
</defs>
<style>
  text { font-family: "Segoe UI", "SF Pro Display", -apple-system, sans-serif; }
  .title { font-size:18px; font-weight:700; fill:#e6edf3; }
  .subtitle { font-size:12px; fill:#8b949e; }
  .section-label { font-size:11px; font-weight:600; fill:#a78bfa; letter-spacing:1.5px; }
  .tag-text { font-size:11.5px; font-weight:500; fill:#e6edf3; }
  .pct-text { font-size:10px; fill:#8b949e; }
</style>
<!-- Background -->
<rect width="860" height="748" rx="12" fill="#0d1117" stroke="#30363d" stroke-width="1"/>
<!-- Header gradient band -->
<rect width="860" height="88" rx="12" fill="url(#hdr)"/>
<rect y="60" width="860" height="28" fill="#0d1117"/>

<text x="28" y="46" class="title">🛠️  Tech Stack — @onirudda-islam</text>
<text x="28" y="66" class="subtitle">Dynamically scanned across all repositories · Updated 2026-05-03</text>
<text x="28" y="108" class="section-label">LANGUAGES</text>
<g clip-path="url(#bar-clip)">
<rect x="28" y="120" width="291" height="12" fill="#F7DF1E"><title>JavaScript: 36.2%</title></rect>
<rect x="319" y="120" width="201" height="12" fill="#3776AB"><title>Python: 25.0%</title></rect>
<rect x="520" y="120" width="95" height="12" fill="#3178C6"><title>TypeScript: 11.8%</title></rect>
<rect x="615" y="120" width="86" height="12" fill="#0175C2"><title>Dart: 10.7%</title></rect>
<rect x="701" y="120" width="28" height="12" fill="#00ADD8"><title>Go: 3.5%</title></rect>
<rect x="729" y="120" width="19" height="12" fill="#6E7681"><title>SCSS: 2.3%</title></rect>
<rect x="748" y="120" width="18" height="12" fill="#777BB4"><title>PHP: 2.3%</title></rect>
<rect x="766" y="120" width="11" height="12" fill="#6E7681"><title>Blade: 1.3%</title></rect>
<rect x="777" y="120" width="10" height="12" fill="#6E7681"><title>HTML: 1.2%</title></rect>
<rect x="787" y="120" width="8" height="12" fill="#6E7681"><title>Makefile: 1.0%</title></rect>
<rect x="795" y="120" width="7" height="12" fill="#DA5B0B"><title>Jupyter Notebook: 0.9%</title></rect>
<rect x="802" y="120" width="6" height="12" fill="#ED8B00"><title>Java: 0.7%</title></rect>
<rect x="808" y="120" width="4" height="12" fill="#6E7681"><title>CSS: 0.6%</title></rect>
<rect x="812" y="120" width="4" height="12" fill="#89E051"><title>Shell: 0.5%</title></rect>
<rect x="816" y="120" width="3" height="12" fill="#CE422B"><title>Rust: 0.4%</title></rect>
<rect x="819" y="120" width="3" height="12" fill="#6E7681"><title>Vue: 0.3%</title></rect>
<rect x="822" y="120" width="3" height="12" fill="#7F52FF"><title>Kotlin: 0.3%</title></rect>
<rect x="825" y="120" width="2" height="12" fill="#363636"><title>Solidity: 0.3%</title></rect>
<rect x="827" y="120" width="2" height="12" fill="#00599C"><title>C++: 0.2%</title></rect>
<rect x="829" y="120" width="2" height="12" fill="#6E7681"><title>CMake: 0.1%</title></rect>
<rect x="831" y="120" width="2" height="12" fill="#6E7681"><title>Other: 0.2%</title></rect>
</g>
<g>
  <rect x="28" y="142" width="137" height="26" rx="5"
        fill="#F7DF1E22" stroke="#F7DF1E66" stroke-width="1"/>
  <circle cx="39" cy="155" r="4" fill="#F7DF1E"/>
  <text x="48" y="159" class="tag-text">JavaScript · 94r</text>
</g>
<g>
  <rect x="173" y="142" width="108" height="26" rx="5"
        fill="#3776AB22" stroke="#3776AB66" stroke-width="1"/>
  <circle cx="184" cy="155" r="4" fill="#3776AB"/>
  <text x="193" y="159" class="tag-text">Python · 35r</text>
</g>
<g>
  <rect x="289" y="142" width="137" height="26" rx="5"
        fill="#3178C622" stroke="#3178C666" stroke-width="1"/>
  <circle cx="300" cy="155" r="4" fill="#3178C6"/>
  <text x="309" y="159" class="tag-text">TypeScript · 17r</text>
</g>
<g>
  <rect x="434" y="142" width="94" height="26" rx="5"
        fill="#0175C222" stroke="#0175C266" stroke-width="1"/>
  <circle cx="445" cy="155" r="4" fill="#0175C2"/>
  <text x="454" y="159" class="tag-text">Dart · 16r</text>
</g>
<g>
  <rect x="536" y="142" width="72" height="26" rx="5"
        fill="#00ADD822" stroke="#00ADD866" stroke-width="1"/>
  <circle cx="547" cy="155" r="4" fill="#00ADD8"/>
  <text x="556" y="159" class="tag-text">Go · 2r</text>
</g>
<g>
  <rect x="616" y="142" width="86" height="26" rx="5"
        fill="#6E768122" stroke="#6E768166" stroke-width="1"/>
  <circle cx="627" cy="155" r="4" fill="#6E7681"/>
  <text x="636" y="159" class="tag-text">SCSS · 7r</text>
</g>
<g>
  <rect x="710" y="142" width="79" height="26" rx="5"
        fill="#777BB422" stroke="#777BB466" stroke-width="1"/>
  <circle cx="721" cy="155" r="4" fill="#777BB4"/>
  <text x="730" y="159" class="tag-text">PHP · 2r</text>
</g>
<g>
  <rect x="28" y="176" width="94" height="26" rx="5"
        fill="#6E768122" stroke="#6E768166" stroke-width="1"/>
  <circle cx="39" cy="189" r="4" fill="#6E7681"/>
  <text x="48" y="193" class="tag-text">Blade · 1r</text>
</g>
<g>
  <rect x="130" y="176" width="173" height="26" rx="5"
        fill="#DA5B0B22" stroke="#DA5B0B66" stroke-width="1"/>
  <circle cx="141" cy="189" r="4" fill="#DA5B0B"/>
  <text x="150" y="193" class="tag-text">Jupyter Notebook · 2r</text>
</g>
<g>
  <rect x="311" y="176" width="86" height="26" rx="5"
        fill="#ED8B0022" stroke="#ED8B0066" stroke-width="1"/>
  <circle cx="322" cy="189" r="4" fill="#ED8B00"/>
  <text x="331" y="193" class="tag-text">Java · 3r</text>
</g>
<g>
  <rect x="405" y="176" width="86" height="26" rx="5"
        fill="#CE422B22" stroke="#CE422B66" stroke-width="1"/>
  <circle cx="416" cy="189" r="4" fill="#CE422B"/>
  <text x="425" y="193" class="tag-text">Rust · 3r</text>
</g>
<g>
  <rect x="499" y="176" width="79" height="26" rx="5"
        fill="#6E768122" stroke="#6E768166" stroke-width="1"/>
  <circle cx="510" cy="189" r="4" fill="#6E7681"/>
  <text x="519" y="193" class="tag-text">Vue · 2r</text>
</g>
<g>
  <rect x="586" y="176" width="108" height="26" rx="5"
        fill="#7F52FF22" stroke="#7F52FF66" stroke-width="1"/>
  <circle cx="597" cy="189" r="4" fill="#7F52FF"/>
  <text x="606" y="193" class="tag-text">Kotlin · 16r</text>
</g>
<g>
  <rect x="702" y="176" width="122" height="26" rx="5"
        fill="#36363622" stroke="#36363666" stroke-width="1"/>
  <circle cx="713" cy="189" r="4" fill="#363636"/>
  <text x="722" y="193" class="tag-text">Solidity · 16r</text>
</g>
<g>
  <rect x="28" y="210" width="79" height="26" rx="5"
        fill="#00599C22" stroke="#00599C66" stroke-width="1"/>
  <circle cx="39" cy="223" r="4" fill="#00599C"/>
  <text x="48" y="227" class="tag-text">C++ · 8r</text>
</g>
<g>
  <rect x="115" y="210" width="79" height="26" rx="5"
        fill="#6E768122" stroke="#6E768166" stroke-width="1"/>
  <circle cx="126" cy="223" r="4" fill="#6E7681"/>
  <text x="135" y="227" class="tag-text">MDX · 1r</text>
</g>
<g>
  <rect x="202" y="210" width="101" height="26" rx="5"
        fill="#FA734322" stroke="#FA734366" stroke-width="1"/>
  <circle cx="213" cy="223" r="4" fill="#FA7343"/>
  <text x="222" y="227" class="tag-text">Swift · 14r</text>
</g>
<g>
  <rect x="311" y="210" width="94" height="26" rx="5"
        fill="#CC342D22" stroke="#CC342D66" stroke-width="1"/>
  <circle cx="322" cy="223" r="4" fill="#CC342D"/>
  <text x="331" y="227" class="tag-text">Ruby · 10r</text>
</g>
<g>
  <rect x="413" y="210" width="65" height="26" rx="5"
        fill="#A8B9CC22" stroke="#A8B9CC66" stroke-width="1"/>
  <circle cx="424" cy="223" r="4" fill="#A8B9CC"/>
  <text x="433" y="227" class="tag-text">C · 8r</text>
</g>
<g>
  <rect x="486" y="210" width="108" height="26" rx="5"
        fill="#6E768122" stroke="#6E768166" stroke-width="1"/>
  <circle cx="497" cy="223" r="4" fill="#6E7681"/>
  <text x="506" y="227" class="tag-text">PLpgSQL · 3r</text>
</g>
<line x1="28" y1="268" x2="832" y2="268" stroke="#30363d" stroke-width="1"/>
<text x="28" y="304" class="section-label">FRAMEWORKS &amp; LIBRARIES</text>
<g>
  <rect x="28" y="316" width="50" height="26" rx="5"
        fill="#00000022" stroke="#00000066" stroke-width="1"/>
  <rect x="34" y="325" width="8" height="8" rx="2" fill="#000000"/>
  <text x="48" y="333" class="tag-text">Axum</text>
</g>
<g>
  <rect x="86" y="316" width="86" height="26" rx="5"
        fill="#6E768122" stroke="#6E768166" stroke-width="1"/>
  <rect x="92" y="325" width="8" height="8" rx="2" fill="#6E7681"/>
  <text x="106" y="333" class="tag-text">Cassandra</text>
</g>
<g>
  <rect x="180" y="316" width="65" height="26" rx="5"
        fill="#37814A22" stroke="#37814A66" stroke-width="1"/>
  <rect x="186" y="325" width="8" height="8" rx="2" fill="#37814A"/>
  <text x="200" y="333" class="tag-text">Celery</text>
</g>
<g>
  <rect x="253" y="316" width="94" height="26" rx="5"
        fill="#6E768122" stroke="#6E768166" stroke-width="1"/>
  <rect x="259" y="325" width="8" height="8" rx="2" fill="#6E7681"/>
  <text x="273" y="333" class="tag-text">ClickHouse</text>
</g>
<g>
  <rect x="355" y="316" width="65" height="26" rx="5"
        fill="#092E2022" stroke="#092E2066" stroke-width="1"/>
  <rect x="361" y="325" width="8" height="8" rx="2" fill="#092E20"/>
  <text x="375" y="333" class="tag-text">Django</text>
</g>
<g>
  <rect x="428" y="316" width="130" height="26" rx="5"
        fill="#6E768122" stroke="#6E768166" stroke-width="1"/>
  <rect x="434" y="325" width="8" height="8" rx="2" fill="#6E7681"/>
  <text x="448" y="333" class="tag-text">Docker Registry</text>
</g>
<g>
  <rect x="566" y="316" width="72" height="26" rx="5"
        fill="#00000022" stroke="#00000066" stroke-width="1"/>
  <rect x="572" y="325" width="8" height="8" rx="2" fill="#000000"/>
  <text x="586" y="333" class="tag-text">Express</text>
</g>
<g>
  <rect x="646" y="316" width="72" height="26" rx="5"
        fill="#00968822" stroke="#00968866" stroke-width="1"/>
  <rect x="652" y="325" width="8" height="8" rx="2" fill="#009688"/>
  <text x="666" y="333" class="tag-text">FastAPI</text>
</g>
<g>
  <rect x="726" y="316" width="58" height="26" rx="5"
        fill="#00000022" stroke="#00000066" stroke-width="1"/>
  <rect x="732" y="325" width="8" height="8" rx="2" fill="#000000"/>
  <text x="746" y="333" class="tag-text">Flask</text>
</g>
<g>
  <rect x="28" y="350" width="72" height="26" rx="5"
        fill="#6E768122" stroke="#6E768166" stroke-width="1"/>
  <rect x="34" y="359" width="8" height="8" rx="2" fill="#6E7681"/>
  <text x="48" y="367" class="tag-text">Grafana</text>
</g>
<g>
  <rect x="108" y="350" width="72" height="26" rx="5"
        fill="#E1009822" stroke="#E1009866" stroke-width="1"/>
  <rect x="114" y="359" width="8" height="8" rx="2" fill="#E10098"/>
  <text x="128" y="367" class="tag-text">GraphQL</text>
</g>
<g>
  <rect x="188" y="350" width="101" height="26" rx="5"
        fill="#FFD21E22" stroke="#FFD21E66" stroke-width="1"/>
  <rect x="194" y="359" width="8" height="8" rx="2" fill="#FFD21E"/>
  <text x="208" y="367" class="tag-text">HuggingFace</text>
</g>
<g>
  <rect x="297" y="350" width="58" height="26" rx="5"
        fill="#6E768122" stroke="#6E768166" stroke-width="1"/>
  <rect x="303" y="359" width="8" height="8" rx="2" fill="#6E7681"/>
  <text x="317" y="367" class="tag-text">Kafka</text>
</g>
<g>
  <rect x="363" y="350" width="79" height="26" rx="5"
        fill="#6E768122" stroke="#6E768166" stroke-width="1"/>
  <rect x="369" y="359" width="8" height="8" rx="2" fill="#6E7681"/>
  <text x="383" y="367" class="tag-text">Keycloak</text>
</g>
<g>
  <rect x="450" y="350" width="72" height="26" rx="5"
        fill="#6E768122" stroke="#6E768166" stroke-width="1"/>
  <rect x="456" y="359" width="8" height="8" rx="2" fill="#6E7681"/>
  <text x="470" y="367" class="tag-text">MariaDB</text>
</g>
<g>
  <rect x="530" y="350" width="101" height="26" rx="5"
        fill="#6E768122" stroke="#6E768166" stroke-width="1"/>
  <rect x="536" y="359" width="8" height="8" rx="2" fill="#6E7681"/>
  <text x="550" y="367" class="tag-text">MeiliSearch</text>
</g>
<g>
  <rect x="639" y="350" width="58" height="26" rx="5"
        fill="#6E768122" stroke="#6E768166" stroke-width="1"/>
  <rect x="645" y="359" width="8" height="8" rx="2" fill="#6E7681"/>
  <text x="659" y="367" class="tag-text">MinIO</text>
</g>
<g>
  <rect x="705" y="350" width="72" height="26" rx="5"
        fill="#6E768122" stroke="#6E768166" stroke-width="1"/>
  <rect x="711" y="359" width="8" height="8" rx="2" fill="#6E7681"/>
  <text x="725" y="367" class="tag-text">MongoDB</text>
</g>
<g>
  <rect x="28" y="384" width="58" height="26" rx="5"
        fill="#6E768122" stroke="#6E768166" stroke-width="1"/>
  <rect x="34" y="393" width="8" height="8" rx="2" fill="#6E7681"/>
  <text x="48" y="401" class="tag-text">MySQL</text>
</g>
<g>
  <rect x="94" y="384" width="72" height="26" rx="5"
        fill="#00000022" stroke="#00000066" stroke-width="1"/>
  <rect x="100" y="393" width="8" height="8" rx="2" fill="#000000"/>
  <text x="114" y="401" class="tag-text">Next.js</text>
</g>
<g>
  <rect x="174" y="384" width="58" height="26" rx="5"
        fill="#6E768122" stroke="#6E768166" stroke-width="1"/>
  <rect x="180" y="393" width="8" height="8" rx="2" fill="#6E7681"/>
  <text x="194" y="401" class="tag-text">Nginx</text>
</g>
<g>
  <rect x="240" y="384" width="58" height="26" rx="5"
        fill="#4DABCF22" stroke="#4DABCF66" stroke-width="1"/>
  <rect x="246" y="393" width="8" height="8" rx="2" fill="#4DABCF"/>
  <text x="260" y="401" class="tag-text">NumPy</text>
</g>
<g>
  <rect x="306" y="384" width="115" height="26" rx="5"
        fill="#6E768122" stroke="#6E768166" stroke-width="1"/>
  <rect x="312" y="393" width="8" height="8" rx="2" fill="#6E7681"/>
  <text x="326" y="401" class="tag-text">OpenTelemetry</text>
</g>
<g>
  <rect x="429" y="384" width="65" height="26" rx="5"
        fill="#15045822" stroke="#15045866" stroke-width="1"/>
  <rect x="435" y="393" width="8" height="8" rx="2" fill="#150458"/>
  <text x="449" y="401" class="tag-text">Pandas</text>
</g>
<g>
  <rect x="502" y="384" width="94" height="26" rx="5"
        fill="#6E768122" stroke="#6E768166" stroke-width="1"/>
  <rect x="508" y="393" width="8" height="8" rx="2" fill="#6E7681"/>
  <text x="522" y="401" class="tag-text">PostgreSQL</text>
</g>
<g>
  <rect x="604" y="384" width="65" height="26" rx="5"
        fill="#2D374822" stroke="#2D374866" stroke-width="1"/>
  <rect x="610" y="393" width="8" height="8" rx="2" fill="#2D3748"/>
  <text x="624" y="401" class="tag-text">Prisma</text>
</g>
<g>
  <rect x="677" y="384" width="94" height="26" rx="5"
        fill="#6E768122" stroke="#6E768166" stroke-width="1"/>
  <rect x="683" y="393" width="8" height="8" rx="2" fill="#6E7681"/>
  <text x="697" y="401" class="tag-text">Prometheus</text>
</g>
<g>
  <rect x="28" y="418" width="137" height="26" rx="5"
        fill="#6E768122" stroke="#6E768166" stroke-width="1"/>
  <rect x="34" y="427" width="8" height="8" rx="2" fill="#6E7681"/>
  <text x="48" y="435" class="tag-text">Protocol Buffers</text>
</g>
<g>
  <rect x="173" y="418" width="72" height="26" rx="5"
        fill="#EE4C2C22" stroke="#EE4C2C66" stroke-width="1"/>
  <rect x="179" y="427" width="8" height="8" rx="2" fill="#EE4C2C"/>
  <text x="193" y="435" class="tag-text">PyTorch</text>
</g>
<g>
  <rect x="253" y="418" width="79" height="26" rx="5"
        fill="#E9206322" stroke="#E9206366" stroke-width="1"/>
  <rect x="259" y="427" width="8" height="8" rx="2" fill="#E92063"/>
  <text x="273" y="435" class="tag-text">Pydantic</text>
</g>
<g>
  <rect x="340" y="418" width="58" height="26" rx="5"
        fill="#61DAFB22" stroke="#61DAFB66" stroke-width="1"/>
  <rect x="346" y="427" width="8" height="8" rx="2" fill="#61DAFB"/>
  <text x="360" y="435" class="tag-text">React</text>
</g>
<g>
  <rect x="406" y="418" width="58" height="26" rx="5"
        fill="#6E768122" stroke="#6E768166" stroke-width="1"/>
  <rect x="412" y="427" width="8" height="8" rx="2" fill="#6E7681"/>
  <text x="426" y="435" class="tag-text">Redis</text>
</g>
<g>
  <rect x="472" y="418" width="94" height="26" rx="5"
        fill="#D71F0022" stroke="#D71F0066" stroke-width="1"/>
  <rect x="478" y="427" width="8" height="8" rx="2" fill="#D71F00"/>
  <text x="492" y="435" class="tag-text">SQLAlchemy</text>
</g>
<g>
  <rect x="574" y="418" width="79" height="26" rx="5"
        fill="#6E768122" stroke="#6E768166" stroke-width="1"/>
  <rect x="580" y="427" width="8" height="8" rx="2" fill="#6E7681"/>
  <text x="594" y="435" class="tag-text">Solidity</text>
</g>
<g>
  <rect x="661" y="418" width="86" height="26" rx="5"
        fill="#6E768122" stroke="#6E768166" stroke-width="1"/>
  <rect x="667" y="427" width="8" height="8" rx="2" fill="#6E7681"/>
  <text x="681" y="435" class="tag-text">Terraform</text>
</g>
<g>
  <rect x="28" y="452" width="101" height="26" rx="5"
        fill="#6E768122" stroke="#6E768166" stroke-width="1"/>
  <rect x="34" y="461" width="8" height="8" rx="2" fill="#6E7681"/>
  <text x="48" y="469" class="tag-text">TimescaleDB</text>
</g>
<g>
  <rect x="137" y="452" width="58" height="26" rx="5"
        fill="#CE422B22" stroke="#CE422B66" stroke-width="1"/>
  <rect x="143" y="461" width="8" height="8" rx="2" fill="#CE422B"/>
  <text x="157" y="469" class="tag-text">Tokio</text>
</g>
<g>
  <rect x="203" y="452" width="65" height="26" rx="5"
        fill="#4FC08D22" stroke="#4FC08D66" stroke-width="1"/>
  <rect x="209" y="461" width="8" height="8" rx="2" fill="#4FC08D"/>
  <text x="223" y="469" class="tag-text">Vue.js</text>
</g>
<g>
  <rect x="276" y="452" width="50" height="26" rx="5"
        fill="#244C5A22" stroke="#244C5A66" stroke-width="1"/>
  <rect x="282" y="461" width="8" height="8" rx="2" fill="#244C5A"/>
  <text x="296" y="469" class="tag-text">gRPC</text>
</g>
<line x1="28" y1="510" x2="832" y2="510" stroke="#30363d" stroke-width="1"/>
<text x="28" y="546" class="section-label">INFRASTRUCTURE &amp; DEVOPS</text>
<g>
  <rect x="28" y="558" width="43" height="26" rx="5"
        fill="#FF990022" stroke="#FF990066" stroke-width="1"/>
  <rect x="34" y="567" width="8" height="8" rx="2" fill="#FF9900"/>
  <text x="48" y="575" class="tag-text">AWS</text>
</g>
<g>
  <rect x="79" y="558" width="43" height="26" rx="5"
        fill="#FF990022" stroke="#FF990066" stroke-width="1"/>
  <rect x="85" y="567" width="8" height="8" rx="2" fill="#FF9900"/>
  <text x="99" y="575" class="tag-text">CDK</text>
</g>
<g>
  <rect x="130" y="558" width="86" height="26" rx="5"
        fill="#6E768122" stroke="#6E768166" stroke-width="1"/>
  <rect x="136" y="567" width="8" height="8" rx="2" fill="#6E7681"/>
  <text x="150" y="575" class="tag-text">Cassandra</text>
</g>
<g>
  <rect x="224" y="558" width="79" height="26" rx="5"
        fill="#34343422" stroke="#34343466" stroke-width="1"/>
  <rect x="230" y="567" width="8" height="8" rx="2" fill="#343434"/>
  <text x="244" y="575" class="tag-text">CircleCI</text>
</g>
<g>
  <rect x="311" y="558" width="94" height="26" rx="5"
        fill="#6E768122" stroke="#6E768166" stroke-width="1"/>
  <rect x="317" y="567" width="8" height="8" rx="2" fill="#6E7681"/>
  <text x="331" y="575" class="tag-text">ClickHouse</text>
</g>
<g>
  <rect x="413" y="558" width="65" height="26" rx="5"
        fill="#2496ED22" stroke="#2496ED66" stroke-width="1"/>
  <rect x="419" y="567" width="8" height="8" rx="2" fill="#2496ED"/>
  <text x="433" y="575" class="tag-text">Docker</text>
</g>
<g>
  <rect x="486" y="558" width="130" height="26" rx="5"
        fill="#6E768122" stroke="#6E768166" stroke-width="1"/>
  <rect x="492" y="567" width="8" height="8" rx="2" fill="#6E7681"/>
  <text x="506" y="575" class="tag-text">Docker Registry</text>
</g>
<g>
  <rect x="624" y="558" width="79" height="26" rx="5"
        fill="#FFCA2822" stroke="#FFCA2866" stroke-width="1"/>
  <rect x="630" y="567" width="8" height="8" rx="2" fill="#FFCA28"/>
  <text x="644" y="575" class="tag-text">Firebase</text>
</g>
<g>
  <rect x="711" y="558" width="43" height="26" rx="5"
        fill="#4285F422" stroke="#4285F466" stroke-width="1"/>
  <rect x="717" y="567" width="8" height="8" rx="2" fill="#4285F4"/>
  <text x="731" y="575" class="tag-text">GCP</text>
</g>
<g>
  <rect x="28" y="592" width="122" height="26" rx="5"
        fill="#2088FF22" stroke="#2088FF66" stroke-width="1"/>
  <rect x="34" y="601" width="8" height="8" rx="2" fill="#2088FF"/>
  <text x="48" y="609" class="tag-text">GitHub Actions</text>
</g>
<g>
  <rect x="158" y="592" width="72" height="26" rx="5"
        fill="#F4680022" stroke="#F4680066" stroke-width="1"/>
  <rect x="164" y="601" width="8" height="8" rx="2" fill="#F46800"/>
  <text x="178" y="609" class="tag-text">Grafana</text>
</g>
<g>
  <rect x="238" y="592" width="72" height="26" rx="5"
        fill="#6E768122" stroke="#6E768166" stroke-width="1"/>
  <rect x="244" y="601" width="8" height="8" rx="2" fill="#6E7681"/>
  <text x="258" y="609" class="tag-text">GraphQL</text>
</g>
<g>
  <rect x="318" y="592" width="50" height="26" rx="5"
        fill="#0F168922" stroke="#0F168966" stroke-width="1"/>
  <rect x="324" y="601" width="8" height="8" rx="2" fill="#0F1689"/>
  <text x="338" y="609" class="tag-text">Helm</text>
</g>
<g>
  <rect x="376" y="592" width="58" height="26" rx="5"
        fill="#231F2022" stroke="#231F2066" stroke-width="1"/>
  <rect x="382" y="601" width="8" height="8" rx="2" fill="#231F20"/>
  <text x="396" y="609" class="tag-text">Kafka</text>
</g>
<g>
  <rect x="442" y="592" width="79" height="26" rx="5"
        fill="#6E768122" stroke="#6E768166" stroke-width="1"/>
  <rect x="448" y="601" width="8" height="8" rx="2" fill="#6E7681"/>
  <text x="462" y="609" class="tag-text">Keycloak</text>
</g>
<g>
  <rect x="529" y="592" width="94" height="26" rx="5"
        fill="#326CE522" stroke="#326CE566" stroke-width="1"/>
  <rect x="535" y="601" width="8" height="8" rx="2" fill="#326CE5"/>
  <text x="549" y="609" class="tag-text">Kubernetes</text>
</g>
<g>
  <rect x="631" y="592" width="72" height="26" rx="5"
        fill="#6E768122" stroke="#6E768166" stroke-width="1"/>
  <rect x="637" y="601" width="8" height="8" rx="2" fill="#6E7681"/>
  <text x="651" y="609" class="tag-text">MariaDB</text>
</g>
<g>
  <rect x="711" y="592" width="101" height="26" rx="5"
        fill="#6E768122" stroke="#6E768166" stroke-width="1"/>
  <rect x="717" y="601" width="8" height="8" rx="2" fill="#6E7681"/>
  <text x="731" y="609" class="tag-text">MeiliSearch</text>
</g>
<g>
  <rect x="28" y="626" width="58" height="26" rx="5"
        fill="#6E768122" stroke="#6E768166" stroke-width="1"/>
  <rect x="34" y="635" width="8" height="8" rx="2" fill="#6E7681"/>
  <text x="48" y="643" class="tag-text">MinIO</text>
</g>
<g>
  <rect x="94" y="626" width="72" height="26" rx="5"
        fill="#47A24822" stroke="#47A24866" stroke-width="1"/>
  <rect x="100" y="635" width="8" height="8" rx="2" fill="#47A248"/>
  <text x="114" y="643" class="tag-text">MongoDB</text>
</g>
<g>
  <rect x="174" y="626" width="58" height="26" rx="5"
        fill="#6E768122" stroke="#6E768166" stroke-width="1"/>
  <rect x="180" y="635" width="8" height="8" rx="2" fill="#6E7681"/>
  <text x="194" y="643" class="tag-text">MySQL</text>
</g>
<g>
  <rect x="240" y="626" width="58" height="26" rx="5"
        fill="#6E768122" stroke="#6E768166" stroke-width="1"/>
  <rect x="246" y="635" width="8" height="8" rx="2" fill="#6E7681"/>
  <text x="260" y="643" class="tag-text">Nginx</text>
</g>
<g>
  <rect x="306" y="626" width="115" height="26" rx="5"
        fill="#425CC722" stroke="#425CC766" stroke-width="1"/>
  <rect x="312" y="635" width="8" height="8" rx="2" fill="#425CC7"/>
  <text x="326" y="643" class="tag-text">OpenTelemetry</text>
</g>
<g>
  <rect x="429" y="626" width="94" height="26" rx="5"
        fill="#4169E122" stroke="#4169E166" stroke-width="1"/>
  <rect x="435" y="635" width="8" height="8" rx="2" fill="#4169E1"/>
  <text x="449" y="643" class="tag-text">PostgreSQL</text>
</g>
<g>
  <rect x="531" y="626" width="94" height="26" rx="5"
        fill="#E6522C22" stroke="#E6522C66" stroke-width="1"/>
  <rect x="537" y="635" width="8" height="8" rx="2" fill="#E6522C"/>
  <text x="551" y="643" class="tag-text">Prometheus</text>
</g>
<g>
  <rect x="633" y="626" width="137" height="26" rx="5"
        fill="#6E768122" stroke="#6E768166" stroke-width="1"/>
  <rect x="639" y="635" width="8" height="8" rx="2" fill="#6E7681"/>
  <text x="653" y="643" class="tag-text">Protocol Buffers</text>
</g>
<g>
  <rect x="28" y="660" width="58" height="26" rx="5"
        fill="#DC382D22" stroke="#DC382D66" stroke-width="1"/>
  <rect x="34" y="669" width="8" height="8" rx="2" fill="#DC382D"/>
  <text x="48" y="677" class="tag-text">Redis</text>
</g>
<g>
  <rect x="94" y="660" width="79" height="26" rx="5"
        fill="#6E768122" stroke="#6E768166" stroke-width="1"/>
  <rect x="100" y="669" width="8" height="8" rx="2" fill="#6E7681"/>
  <text x="114" y="677" class="tag-text">Solidity</text>
</g>
<g>
  <rect x="181" y="660" width="86" height="26" rx="5"
        fill="#7B42BC22" stroke="#7B42BC66" stroke-width="1"/>
  <rect x="187" y="669" width="8" height="8" rx="2" fill="#7B42BC"/>
  <text x="201" y="677" class="tag-text">Terraform</text>
</g>
<g>
  <rect x="275" y="660" width="101" height="26" rx="5"
        fill="#6E768122" stroke="#6E768166" stroke-width="1"/>
  <rect x="281" y="669" width="8" height="8" rx="2" fill="#6E7681"/>
  <text x="295" y="677" class="tag-text">TimescaleDB</text>
</g>
<g>
  <rect x="384" y="660" width="65" height="26" rx="5"
        fill="#00000022" stroke="#00000066" stroke-width="1"/>
  <rect x="390" y="669" width="8" height="8" rx="2" fill="#000000"/>
  <text x="404" y="677" class="tag-text">Vercel</text>
</g>
<text x="430" y="718" text-anchor="middle" class="subtitle">github.com/onirudda-islam/stats · auto-generated · do not edit</text>
</svg>