<svg xmlns="http://www.w3.org/2000/svg" width="860" height="680" viewBox="0 0 860 680">
<defs>
  <linearGradient id="hdr" x1="0" y1="0" x2="1" y2="0">
    <stop offset="0%" stop-color="#1a1040"/>
    <stop offset="100%" stop-color="#0d1117"/>
  </linearGradient>
  <clipPath id="bar-clip">
    <rect x="28" y="0" width="804" height="12" rx="6"/>
  </clipPath>
  <filter id="glow">
    <feGaussianBlur stdDeviation="2" result="blur"/>
    <feComposite in="SourceGraphic" in2="blur" operator="over"/>
  </filter>
</defs>
<style>
  text { font-family: "Segoe UI", "SF Pro Display", -apple-system, sans-serif; }
  .title { font-size:18px; font-weight:700; fill:#e6edf3; }
  .subtitle { font-size:12px; fill:#8b949e; }
  .section-label { font-size:11px; font-weight:600; fill:#a78bfa; letter-spacing:1.5px; }
  .tag-text { font-size:11.5px; font-weight:500; fill:#e6edf3; }
  .pct-text { font-size:10px; fill:#8b949e; }
</style>
<!-- Background -->
<rect width="860" height="680" rx="12" fill="#0d1117" stroke="#30363d" stroke-width="1"/>
<!-- Header gradient band -->
<rect width="860" height="88" rx="12" fill="url(#hdr)"/>
<rect y="60" width="860" height="28" fill="#0d1117"/>

<text x="28" y="46" class="title">🛠️  Tech Stack — @onirudda-islam</text>
<text x="28" y="66" class="subtitle">Dynamically scanned across all repositories · Updated 2026-03-29</text>
<text x="28" y="108" class="section-label">LANGUAGES</text>
<g clip-path="url(#bar-clip)">
<rect x="28" y="120" width="302" height="12" fill="#F7DF1E"><title>JavaScript: 37.5%</title></rect>
<rect x="330" y="120" width="204" height="12" fill="#3776AB"><title>Python: 25.4%</title></rect>
<rect x="534" y="120" width="104" height="12" fill="#0175C2"><title>Dart: 13.0%</title></rect>
<rect x="638" y="120" width="62" height="12" fill="#3178C6"><title>TypeScript: 7.7%</title></rect>
<rect x="700" y="120" width="27" height="12" fill="#00ADD8"><title>Go: 3.3%</title></rect>
<rect x="727" y="120" width="19" height="12" fill="#6E7681"><title>SCSS: 2.4%</title></rect>
<rect x="746" y="120" width="19" height="12" fill="#777BB4"><title>PHP: 2.4%</title></rect>
<rect x="765" y="120" width="11" height="12" fill="#6E7681"><title>HTML: 1.4%</title></rect>
<rect x="776" y="120" width="11" height="12" fill="#6E7681"><title>Blade: 1.4%</title></rect>
<rect x="787" y="120" width="8" height="12" fill="#6E7681"><title>Makefile: 1.0%</title></rect>
<rect x="795" y="120" width="7" height="12" fill="#DA5B0B"><title>Jupyter Notebook: 0.9%</title></rect>
<rect x="802" y="120" width="6" height="12" fill="#ED8B00"><title>Java: 0.8%</title></rect>
<rect x="808" y="120" width="4" height="12" fill="#6E7681"><title>CSS: 0.5%</title></rect>
<rect x="812" y="120" width="4" height="12" fill="#CE422B"><title>Rust: 0.4%</title></rect>
<rect x="816" y="120" width="4" height="12" fill="#89E051"><title>Shell: 0.4%</title></rect>
<rect x="820" y="120" width="3" height="12" fill="#6E7681"><title>Vue: 0.4%</title></rect>
<rect x="823" y="120" width="3" height="12" fill="#7F52FF"><title>Kotlin: 0.3%</title></rect>
<rect x="826" y="120" width="2" height="12" fill="#363636"><title>Solidity: 0.3%</title></rect>
<rect x="828" y="120" width="2" height="12" fill="#00599C"><title>C++: 0.2%</title></rect>
<rect x="830" y="120" width="2" height="12" fill="#6E7681"><title>CMake: 0.1%</title></rect>
<rect x="832" y="120" width="2" height="12" fill="#6E7681"><title>Other: 0.2%</title></rect>
</g>
<g>
  <rect x="28" y="142" width="137" height="26" rx="5"
        fill="#F7DF1E22" stroke="#F7DF1E66" stroke-width="1"/>
  <circle cx="39" cy="155" r="4" fill="#F7DF1E"/>
  <text x="48" y="159" class="tag-text">JavaScript · 94r</text>
</g>
<g>
  <rect x="173" y="142" width="108" height="26" rx="5"
        fill="#3776AB22" stroke="#3776AB66" stroke-width="1"/>
  <circle cx="184" cy="155" r="4" fill="#3776AB"/>
  <text x="193" y="159" class="tag-text">Python · 33r</text>
</g>
<g>
  <rect x="289" y="142" width="94" height="26" rx="5"
        fill="#0175C222" stroke="#0175C266" stroke-width="1"/>
  <circle cx="300" cy="155" r="4" fill="#0175C2"/>
  <text x="309" y="159" class="tag-text">Dart · 17r</text>
</g>
<g>
  <rect x="391" y="142" width="137" height="26" rx="5"
        fill="#3178C622" stroke="#3178C666" stroke-width="1"/>
  <circle cx="402" cy="155" r="4" fill="#3178C6"/>
  <text x="411" y="159" class="tag-text">TypeScript · 17r</text>
</g>
<g>
  <rect x="536" y="142" width="72" height="26" rx="5"
        fill="#00ADD822" stroke="#00ADD866" stroke-width="1"/>
  <circle cx="547" cy="155" r="4" fill="#00ADD8"/>
  <text x="556" y="159" class="tag-text">Go · 2r</text>
</g>
<g>
  <rect x="616" y="142" width="86" height="26" rx="5"
        fill="#6E768122" stroke="#6E768166" stroke-width="1"/>
  <circle cx="627" cy="155" r="4" fill="#6E7681"/>
  <text x="636" y="159" class="tag-text">SCSS · 7r</text>
</g>
<g>
  <rect x="710" y="142" width="79" height="26" rx="5"
        fill="#777BB422" stroke="#777BB466" stroke-width="1"/>
  <circle cx="721" cy="155" r="4" fill="#777BB4"/>
  <text x="730" y="159" class="tag-text">PHP · 2r</text>
</g>
<g>
  <rect x="28" y="176" width="94" height="26" rx="5"
        fill="#6E768122" stroke="#6E768166" stroke-width="1"/>
  <circle cx="39" cy="189" r="4" fill="#6E7681"/>
  <text x="48" y="193" class="tag-text">Blade · 1r</text>
</g>
<g>
  <rect x="130" y="176" width="173" height="26" rx="5"
        fill="#DA5B0B22" stroke="#DA5B0B66" stroke-width="1"/>
  <circle cx="141" cy="189" r="4" fill="#DA5B0B"/>
  <text x="150" y="193" class="tag-text">Jupyter Notebook · 1r</text>
</g>
<g>
  <rect x="311" y="176" width="86" height="26" rx="5"
        fill="#ED8B0022" stroke="#ED8B0066" stroke-width="1"/>
  <circle cx="322" cy="189" r="4" fill="#ED8B00"/>
  <text x="331" y="193" class="tag-text">Java · 3r</text>
</g>
<g>
  <rect x="405" y="176" width="86" height="26" rx="5"
        fill="#CE422B22" stroke="#CE422B66" stroke-width="1"/>
  <circle cx="416" cy="189" r="4" fill="#CE422B"/>
  <text x="425" y="193" class="tag-text">Rust · 3r</text>
</g>
<g>
  <rect x="499" y="176" width="79" height="26" rx="5"
        fill="#6E768122" stroke="#6E768166" stroke-width="1"/>
  <circle cx="510" cy="189" r="4" fill="#6E7681"/>
  <text x="519" y="193" class="tag-text">Vue · 2r</text>
</g>
<g>
  <rect x="586" y="176" width="108" height="26" rx="5"
        fill="#7F52FF22" stroke="#7F52FF66" stroke-width="1"/>
  <circle cx="597" cy="189" r="4" fill="#7F52FF"/>
  <text x="606" y="193" class="tag-text">Kotlin · 17r</text>
</g>
<g>
  <rect x="702" y="176" width="122" height="26" rx="5"
        fill="#36363622" stroke="#36363666" stroke-width="1"/>
  <circle cx="713" cy="189" r="4" fill="#363636"/>
  <text x="722" y="193" class="tag-text">Solidity · 16r</text>
</g>
<g>
  <rect x="28" y="210" width="79" height="26" rx="5"
        fill="#00599C22" stroke="#00599C66" stroke-width="1"/>
  <circle cx="39" cy="223" r="4" fill="#00599C"/>
  <text x="48" y="227" class="tag-text">C++ · 8r</text>
</g>
<g>
  <rect x="115" y="210" width="79" height="26" rx="5"
        fill="#6E768122" stroke="#6E768166" stroke-width="1"/>
  <circle cx="126" cy="223" r="4" fill="#6E7681"/>
  <text x="135" y="227" class="tag-text">MDX · 1r</text>
</g>
<g>
  <rect x="202" y="210" width="101" height="26" rx="5"
        fill="#FA734322" stroke="#FA734366" stroke-width="1"/>
  <circle cx="213" cy="223" r="4" fill="#FA7343"/>
  <text x="222" y="227" class="tag-text">Swift · 15r</text>
</g>
<g>
  <rect x="311" y="210" width="94" height="26" rx="5"
        fill="#CC342D22" stroke="#CC342D66" stroke-width="1"/>
  <circle cx="322" cy="223" r="4" fill="#CC342D"/>
  <text x="331" y="227" class="tag-text">Ruby · 11r</text>
</g>
<g>
  <rect x="413" y="210" width="65" height="26" rx="5"
        fill="#A8B9CC22" stroke="#A8B9CC66" stroke-width="1"/>
  <circle cx="424" cy="223" r="4" fill="#A8B9CC"/>
  <text x="433" y="227" class="tag-text">C · 8r</text>
</g>
<g>
  <rect x="486" y="210" width="108" height="26" rx="5"
        fill="#6E768122" stroke="#6E768166" stroke-width="1"/>
  <circle cx="497" cy="223" r="4" fill="#6E7681"/>
  <text x="506" y="227" class="tag-text">PLpgSQL · 3r</text>
</g>
<line x1="28" y1="268" x2="832" y2="268" stroke="#30363d" stroke-width="1"/>
<text x="28" y="304" class="section-label">FRAMEWORKS &amp; LIBRARIES</text>
<g>
  <rect x="28" y="316" width="50" height="26" rx="5"
        fill="#00000022" stroke="#00000066" stroke-width="1"/>
  <rect x="34" y="325" width="8" height="8" rx="2" fill="#000000"/>
  <text x="48" y="333" class="tag-text">Axum</text>
</g>
<g>
  <rect x="86" y="316" width="65" height="26" rx="5"
        fill="#37814A22" stroke="#37814A66" stroke-width="1"/>
  <rect x="92" y="325" width="8" height="8" rx="2" fill="#37814A"/>
  <text x="106" y="333" class="tag-text">Celery</text>
</g>
<g>
  <rect x="159" y="316" width="65" height="26" rx="5"
        fill="#092E2022" stroke="#092E2066" stroke-width="1"/>
  <rect x="165" y="325" width="8" height="8" rx="2" fill="#092E20"/>
  <text x="179" y="333" class="tag-text">Django</text>
</g>
<g>
  <rect x="232" y="316" width="72" height="26" rx="5"
        fill="#00000022" stroke="#00000066" stroke-width="1"/>
  <rect x="238" y="325" width="8" height="8" rx="2" fill="#000000"/>
  <text x="252" y="333" class="tag-text">Express</text>
</g>
<g>
  <rect x="312" y="316" width="72" height="26" rx="5"
        fill="#00968822" stroke="#00968866" stroke-width="1"/>
  <rect x="318" y="325" width="8" height="8" rx="2" fill="#009688"/>
  <text x="332" y="333" class="tag-text">FastAPI</text>
</g>
<g>
  <rect x="392" y="316" width="58" height="26" rx="5"
        fill="#00000022" stroke="#00000066" stroke-width="1"/>
  <rect x="398" y="325" width="8" height="8" rx="2" fill="#000000"/>
  <text x="412" y="333" class="tag-text">Flask</text>
</g>
<g>
  <rect x="458" y="316" width="72" height="26" rx="5"
        fill="#6E768122" stroke="#6E768166" stroke-width="1"/>
  <rect x="464" y="325" width="8" height="8" rx="2" fill="#6E7681"/>
  <text x="478" y="333" class="tag-text">Grafana</text>
</g>
<g>
  <rect x="538" y="316" width="72" height="26" rx="5"
        fill="#E1009822" stroke="#E1009866" stroke-width="1"/>
  <rect x="544" y="325" width="8" height="8" rx="2" fill="#E10098"/>
  <text x="558" y="333" class="tag-text">GraphQL</text>
</g>
<g>
  <rect x="618" y="316" width="101" height="26" rx="5"
        fill="#FFD21E22" stroke="#FFD21E66" stroke-width="1"/>
  <rect x="624" y="325" width="8" height="8" rx="2" fill="#FFD21E"/>
  <text x="638" y="333" class="tag-text">HuggingFace</text>
</g>
<g>
  <rect x="727" y="316" width="72" height="26" rx="5"
        fill="#6E768122" stroke="#6E768166" stroke-width="1"/>
  <rect x="733" y="325" width="8" height="8" rx="2" fill="#6E7681"/>
  <text x="747" y="333" class="tag-text">MariaDB</text>
</g>
<g>
  <rect x="28" y="350" width="101" height="26" rx="5"
        fill="#6E768122" stroke="#6E768166" stroke-width="1"/>
  <rect x="34" y="359" width="8" height="8" rx="2" fill="#6E7681"/>
  <text x="48" y="367" class="tag-text">MeiliSearch</text>
</g>
<g>
  <rect x="137" y="350" width="58" height="26" rx="5"
        fill="#6E768122" stroke="#6E768166" stroke-width="1"/>
  <rect x="143" y="359" width="8" height="8" rx="2" fill="#6E7681"/>
  <text x="157" y="367" class="tag-text">MinIO</text>
</g>
<g>
  <rect x="203" y="350" width="72" height="26" rx="5"
        fill="#6E768122" stroke="#6E768166" stroke-width="1"/>
  <rect x="209" y="359" width="8" height="8" rx="2" fill="#6E7681"/>
  <text x="223" y="367" class="tag-text">MongoDB</text>
</g>
<g>
  <rect x="283" y="350" width="58" height="26" rx="5"
        fill="#6E768122" stroke="#6E768166" stroke-width="1"/>
  <rect x="289" y="359" width="8" height="8" rx="2" fill="#6E7681"/>
  <text x="303" y="367" class="tag-text">MySQL</text>
</g>
<g>
  <rect x="349" y="350" width="72" height="26" rx="5"
        fill="#00000022" stroke="#00000066" stroke-width="1"/>
  <rect x="355" y="359" width="8" height="8" rx="2" fill="#000000"/>
  <text x="369" y="367" class="tag-text">Next.js</text>
</g>
<g>
  <rect x="429" y="350" width="58" height="26" rx="5"
        fill="#6E768122" stroke="#6E768166" stroke-width="1"/>
  <rect x="435" y="359" width="8" height="8" rx="2" fill="#6E7681"/>
  <text x="449" y="367" class="tag-text">Nginx</text>
</g>
<g>
  <rect x="495" y="350" width="58" height="26" rx="5"
        fill="#4DABCF22" stroke="#4DABCF66" stroke-width="1"/>
  <rect x="501" y="359" width="8" height="8" rx="2" fill="#4DABCF"/>
  <text x="515" y="367" class="tag-text">NumPy</text>
</g>
<g>
  <rect x="561" y="350" width="115" height="26" rx="5"
        fill="#6E768122" stroke="#6E768166" stroke-width="1"/>
  <rect x="567" y="359" width="8" height="8" rx="2" fill="#6E7681"/>
  <text x="581" y="367" class="tag-text">OpenTelemetry</text>
</g>
<g>
  <rect x="684" y="350" width="65" height="26" rx="5"
        fill="#15045822" stroke="#15045866" stroke-width="1"/>
  <rect x="690" y="359" width="8" height="8" rx="2" fill="#150458"/>
  <text x="704" y="367" class="tag-text">Pandas</text>
</g>
<g>
  <rect x="28" y="384" width="94" height="26" rx="5"
        fill="#6E768122" stroke="#6E768166" stroke-width="1"/>
  <rect x="34" y="393" width="8" height="8" rx="2" fill="#6E7681"/>
  <text x="48" y="401" class="tag-text">PostgreSQL</text>
</g>
<g>
  <rect x="130" y="384" width="65" height="26" rx="5"
        fill="#2D374822" stroke="#2D374866" stroke-width="1"/>
  <rect x="136" y="393" width="8" height="8" rx="2" fill="#2D3748"/>
  <text x="150" y="401" class="tag-text">Prisma</text>
</g>
<g>
  <rect x="203" y="384" width="94" height="26" rx="5"
        fill="#6E768122" stroke="#6E768166" stroke-width="1"/>
  <rect x="209" y="393" width="8" height="8" rx="2" fill="#6E7681"/>
  <text x="223" y="401" class="tag-text">Prometheus</text>
</g>
<g>
  <rect x="305" y="384" width="137" height="26" rx="5"
        fill="#6E768122" stroke="#6E768166" stroke-width="1"/>
  <rect x="311" y="393" width="8" height="8" rx="2" fill="#6E7681"/>
  <text x="325" y="401" class="tag-text">Protocol Buffers</text>
</g>
<g>
  <rect x="450" y="384" width="79" height="26" rx="5"
        fill="#E9206322" stroke="#E9206366" stroke-width="1"/>
  <rect x="456" y="393" width="8" height="8" rx="2" fill="#E92063"/>
  <text x="470" y="401" class="tag-text">Pydantic</text>
</g>
<g>
  <rect x="537" y="384" width="58" height="26" rx="5"
        fill="#61DAFB22" stroke="#61DAFB66" stroke-width="1"/>
  <rect x="543" y="393" width="8" height="8" rx="2" fill="#61DAFB"/>
  <text x="557" y="401" class="tag-text">React</text>
</g>
<g>
  <rect x="603" y="384" width="58" height="26" rx="5"
        fill="#6E768122" stroke="#6E768166" stroke-width="1"/>
  <rect x="609" y="393" width="8" height="8" rx="2" fill="#6E7681"/>
  <text x="623" y="401" class="tag-text">Redis</text>
</g>
<g>
  <rect x="669" y="384" width="94" height="26" rx="5"
        fill="#D71F0022" stroke="#D71F0066" stroke-width="1"/>
  <rect x="675" y="393" width="8" height="8" rx="2" fill="#D71F00"/>
  <text x="689" y="401" class="tag-text">SQLAlchemy</text>
</g>
<g>
  <rect x="28" y="418" width="79" height="26" rx="5"
        fill="#6E768122" stroke="#6E768166" stroke-width="1"/>
  <rect x="34" y="427" width="8" height="8" rx="2" fill="#6E7681"/>
  <text x="48" y="435" class="tag-text">Solidity</text>
</g>
<g>
  <rect x="115" y="418" width="86" height="26" rx="5"
        fill="#6E768122" stroke="#6E768166" stroke-width="1"/>
  <rect x="121" y="427" width="8" height="8" rx="2" fill="#6E7681"/>
  <text x="135" y="435" class="tag-text">Terraform</text>
</g>
<g>
  <rect x="209" y="418" width="101" height="26" rx="5"
        fill="#6E768122" stroke="#6E768166" stroke-width="1"/>
  <rect x="215" y="427" width="8" height="8" rx="2" fill="#6E7681"/>
  <text x="229" y="435" class="tag-text">TimescaleDB</text>
</g>
<g>
  <rect x="318" y="418" width="58" height="26" rx="5"
        fill="#CE422B22" stroke="#CE422B66" stroke-width="1"/>
  <rect x="324" y="427" width="8" height="8" rx="2" fill="#CE422B"/>
  <text x="338" y="435" class="tag-text">Tokio</text>
</g>
<g>
  <rect x="384" y="418" width="65" height="26" rx="5"
        fill="#4FC08D22" stroke="#4FC08D66" stroke-width="1"/>
  <rect x="390" y="427" width="8" height="8" rx="2" fill="#4FC08D"/>
  <text x="404" y="435" class="tag-text">Vue.js</text>
</g>
<g>
  <rect x="457" y="418" width="50" height="26" rx="5"
        fill="#244C5A22" stroke="#244C5A66" stroke-width="1"/>
  <rect x="463" y="427" width="8" height="8" rx="2" fill="#244C5A"/>
  <text x="477" y="435" class="tag-text">gRPC</text>
</g>
<line x1="28" y1="476" x2="832" y2="476" stroke="#30363d" stroke-width="1"/>
<text x="28" y="512" class="section-label">INFRASTRUCTURE &amp; DEVOPS</text>
<g>
  <rect x="28" y="524" width="43" height="26" rx="5"
        fill="#FF990022" stroke="#FF990066" stroke-width="1"/>
  <rect x="34" y="533" width="8" height="8" rx="2" fill="#FF9900"/>
  <text x="48" y="541" class="tag-text">AWS</text>
</g>
<g>
  <rect x="79" y="524" width="43" height="26" rx="5"
        fill="#FF990022" stroke="#FF990066" stroke-width="1"/>
  <rect x="85" y="533" width="8" height="8" rx="2" fill="#FF9900"/>
  <text x="99" y="541" class="tag-text">CDK</text>
</g>
<g>
  <rect x="130" y="524" width="79" height="26" rx="5"
        fill="#34343422" stroke="#34343466" stroke-width="1"/>
  <rect x="136" y="533" width="8" height="8" rx="2" fill="#343434"/>
  <text x="150" y="541" class="tag-text">CircleCI</text>
</g>
<g>
  <rect x="217" y="524" width="65" height="26" rx="5"
        fill="#2496ED22" stroke="#2496ED66" stroke-width="1"/>
  <rect x="223" y="533" width="8" height="8" rx="2" fill="#2496ED"/>
  <text x="237" y="541" class="tag-text">Docker</text>
</g>
<g>
  <rect x="290" y="524" width="79" height="26" rx="5"
        fill="#FFCA2822" stroke="#FFCA2866" stroke-width="1"/>
  <rect x="296" y="533" width="8" height="8" rx="2" fill="#FFCA28"/>
  <text x="310" y="541" class="tag-text">Firebase</text>
</g>
<g>
  <rect x="377" y="524" width="43" height="26" rx="5"
        fill="#4285F422" stroke="#4285F466" stroke-width="1"/>
  <rect x="383" y="533" width="8" height="8" rx="2" fill="#4285F4"/>
  <text x="397" y="541" class="tag-text">GCP</text>
</g>
<g>
  <rect x="428" y="524" width="122" height="26" rx="5"
        fill="#2088FF22" stroke="#2088FF66" stroke-width="1"/>
  <rect x="434" y="533" width="8" height="8" rx="2" fill="#2088FF"/>
  <text x="448" y="541" class="tag-text">GitHub Actions</text>
</g>
<g>
  <rect x="558" y="524" width="72" height="26" rx="5"
        fill="#F4680022" stroke="#F4680066" stroke-width="1"/>
  <rect x="564" y="533" width="8" height="8" rx="2" fill="#F46800"/>
  <text x="578" y="541" class="tag-text">Grafana</text>
</g>
<g>
  <rect x="638" y="524" width="72" height="26" rx="5"
        fill="#6E768122" stroke="#6E768166" stroke-width="1"/>
  <rect x="644" y="533" width="8" height="8" rx="2" fill="#6E7681"/>
  <text x="658" y="541" class="tag-text">GraphQL</text>
</g>
<g>
  <rect x="718" y="524" width="50" height="26" rx="5"
        fill="#0F168922" stroke="#0F168966" stroke-width="1"/>
  <rect x="724" y="533" width="8" height="8" rx="2" fill="#0F1689"/>
  <text x="738" y="541" class="tag-text">Helm</text>
</g>
<g>
  <rect x="28" y="558" width="94" height="26" rx="5"
        fill="#326CE522" stroke="#326CE566" stroke-width="1"/>
  <rect x="34" y="567" width="8" height="8" rx="2" fill="#326CE5"/>
  <text x="48" y="575" class="tag-text">Kubernetes</text>
</g>
<g>
  <rect x="130" y="558" width="72" height="26" rx="5"
        fill="#6E768122" stroke="#6E768166" stroke-width="1"/>
  <rect x="136" y="567" width="8" height="8" rx="2" fill="#6E7681"/>
  <text x="150" y="575" class="tag-text">MariaDB</text>
</g>
<g>
  <rect x="210" y="558" width="101" height="26" rx="5"
        fill="#6E768122" stroke="#6E768166" stroke-width="1"/>
  <rect x="216" y="567" width="8" height="8" rx="2" fill="#6E7681"/>
  <text x="230" y="575" class="tag-text">MeiliSearch</text>
</g>
<g>
  <rect x="319" y="558" width="58" height="26" rx="5"
        fill="#6E768122" stroke="#6E768166" stroke-width="1"/>
  <rect x="325" y="567" width="8" height="8" rx="2" fill="#6E7681"/>
  <text x="339" y="575" class="tag-text">MinIO</text>
</g>
<g>
  <rect x="385" y="558" width="72" height="26" rx="5"
        fill="#47A24822" stroke="#47A24866" stroke-width="1"/>
  <rect x="391" y="567" width="8" height="8" rx="2" fill="#47A248"/>
  <text x="405" y="575" class="tag-text">MongoDB</text>
</g>
<g>
  <rect x="465" y="558" width="58" height="26" rx="5"
        fill="#6E768122" stroke="#6E768166" stroke-width="1"/>
  <rect x="471" y="567" width="8" height="8" rx="2" fill="#6E7681"/>
  <text x="485" y="575" class="tag-text">MySQL</text>
</g>
<g>
  <rect x="531" y="558" width="58" height="26" rx="5"
        fill="#6E768122" stroke="#6E768166" stroke-width="1"/>
  <rect x="537" y="567" width="8" height="8" rx="2" fill="#6E7681"/>
  <text x="551" y="575" class="tag-text">Nginx</text>
</g>
<g>
  <rect x="597" y="558" width="115" height="26" rx="5"
        fill="#425CC722" stroke="#425CC766" stroke-width="1"/>
  <rect x="603" y="567" width="8" height="8" rx="2" fill="#425CC7"/>
  <text x="617" y="575" class="tag-text">OpenTelemetry</text>
</g>
<g>
  <rect x="720" y="558" width="94" height="26" rx="5"
        fill="#4169E122" stroke="#4169E166" stroke-width="1"/>
  <rect x="726" y="567" width="8" height="8" rx="2" fill="#4169E1"/>
  <text x="740" y="575" class="tag-text">PostgreSQL</text>
</g>
<g>
  <rect x="28" y="592" width="94" height="26" rx="5"
        fill="#E6522C22" stroke="#E6522C66" stroke-width="1"/>
  <rect x="34" y="601" width="8" height="8" rx="2" fill="#E6522C"/>
  <text x="48" y="609" class="tag-text">Prometheus</text>
</g>
<g>
  <rect x="130" y="592" width="137" height="26" rx="5"
        fill="#6E768122" stroke="#6E768166" stroke-width="1"/>
  <rect x="136" y="601" width="8" height="8" rx="2" fill="#6E7681"/>
  <text x="150" y="609" class="tag-text">Protocol Buffers</text>
</g>
<g>
  <rect x="275" y="592" width="58" height="26" rx="5"
        fill="#DC382D22" stroke="#DC382D66" stroke-width="1"/>
  <rect x="281" y="601" width="8" height="8" rx="2" fill="#DC382D"/>
  <text x="295" y="609" class="tag-text">Redis</text>
</g>
<g>
  <rect x="341" y="592" width="79" height="26" rx="5"
        fill="#6E768122" stroke="#6E768166" stroke-width="1"/>
  <rect x="347" y="601" width="8" height="8" rx="2" fill="#6E7681"/>
  <text x="361" y="609" class="tag-text">Solidity</text>
</g>
<g>
  <rect x="428" y="592" width="86" height="26" rx="5"
        fill="#7B42BC22" stroke="#7B42BC66" stroke-width="1"/>
  <rect x="434" y="601" width="8" height="8" rx="2" fill="#7B42BC"/>
  <text x="448" y="609" class="tag-text">Terraform</text>
</g>
<g>
  <rect x="522" y="592" width="101" height="26" rx="5"
        fill="#6E768122" stroke="#6E768166" stroke-width="1"/>
  <rect x="528" y="601" width="8" height="8" rx="2" fill="#6E7681"/>
  <text x="542" y="609" class="tag-text">TimescaleDB</text>
</g>
<g>
  <rect x="631" y="592" width="65" height="26" rx="5"
        fill="#00000022" stroke="#00000066" stroke-width="1"/>
  <rect x="637" y="601" width="8" height="8" rx="2" fill="#000000"/>
  <text x="651" y="609" class="tag-text">Vercel</text>
</g>
<text x="430" y="650" text-anchor="middle" class="subtitle">github.com/onirudda-islam/stats · auto-generated · do not edit</text>
</svg>