<svg xmlns="http://www.w3.org/2000/svg" width="860" height="476" viewBox="0 0 860 476">
<defs>
  <linearGradient id="hdr" x1="0" y1="0" x2="1" y2="0">
    <stop offset="0%" stop-color="#1a1040"/>
    <stop offset="100%" stop-color="#0d1117"/>
  </linearGradient>
  <clipPath id="bar-clip">
    <rect x="28" y="0" width="804" height="12" rx="6"/>
  </clipPath>
  <filter id="glow">
    <feGaussianBlur stdDeviation="2" result="blur"/>
    <feComposite in="SourceGraphic" in2="blur" operator="over"/>
  </filter>
</defs>
<style>
  text { font-family: "Segoe UI", "SF Pro Display", -apple-system, sans-serif; }
  .title { font-size:18px; font-weight:700; fill:#e6edf3; }
  .subtitle { font-size:12px; fill:#8b949e; }
  .section-label { font-size:11px; font-weight:600; fill:#a78bfa; letter-spacing:1.5px; }
  .tag-text { font-size:11.5px; font-weight:500; fill:#e6edf3; }
  .pct-text { font-size:10px; fill:#8b949e; }
</style>
<!-- Background -->
<rect width="860" height="476" rx="12" fill="#0d1117" stroke="#30363d" stroke-width="1"/>
<!-- Header gradient band -->
<rect width="860" height="88" rx="12" fill="url(#hdr)"/>
<rect y="60" width="860" height="28" fill="#0d1117"/>

<text x="28" y="46" class="title">🛠️  Tech Stack — @onirudda-islam</text>
<text x="28" y="66" class="subtitle">Dynamically scanned across all repositories · Updated 2026-03-02</text>
<text x="28" y="108" class="section-label">LANGUAGES</text>
<g clip-path="url(#bar-clip)">
<rect x="28" y="120" width="210" height="12" fill="#3178C6"><title>TypeScript: 26.2%</title></rect>
<rect x="238" y="120" width="201" height="12" fill="#DA5B0B"><title>Jupyter Notebook: 25.0%</title></rect>
<rect x="439" y="120" width="127" height="12" fill="#00ADD8"><title>Go: 15.8%</title></rect>
<rect x="566" y="120" width="112" height="12" fill="#3776AB"><title>Python: 13.9%</title></rect>
<rect x="678" y="120" width="78" height="12" fill="#F7DF1E"><title>JavaScript: 9.7%</title></rect>
<rect x="756" y="120" width="55" height="12" fill="#6E7681"><title>HTML: 6.8%</title></rect>
<rect x="811" y="120" width="7" height="12" fill="#6E7681"><title>Makefile: 0.8%</title></rect>
<rect x="818" y="120" width="6" height="12" fill="#89E051"><title>Shell: 0.7%</title></rect>
<rect x="824" y="120" width="6" height="12" fill="#6E7681"><title>MDX: 0.7%</title></rect>
<rect x="830" y="120" width="2" height="12" fill="#6E7681"><title>CSS: 0.1%</title></rect>
<rect x="832" y="120" width="2" height="12" fill="#6E7681"><title>Dockerfile: 0.1%</title></rect>
<rect x="834" y="120" width="2" height="12" fill="#363636"><title>Solidity: 0.1%</title></rect>
<rect x="836" y="120" width="2" height="12" fill="#6E7681"><title>PLpgSQL: 0.0%</title></rect>
<rect x="838" y="120" width="2" height="12" fill="#6E7681"><title>Mako: 0.0%</title></rect>
</g>
<g>
  <rect x="28" y="142" width="94" height="26" rx="5"
        fill="#3178C622" stroke="#3178C666" stroke-width="1"/>
  <circle cx="39" cy="155" r="4" fill="#3178C6"/>
  <text x="48" y="159" class="tag-text">TypeScript</text>
</g>
<g>
  <rect x="130" y="142" width="137" height="26" rx="5"
        fill="#DA5B0B22" stroke="#DA5B0B66" stroke-width="1"/>
  <circle cx="141" cy="155" r="4" fill="#DA5B0B"/>
  <text x="150" y="159" class="tag-text">Jupyter Notebook</text>
</g>
<g>
  <rect x="275" y="142" width="36" height="26" rx="5"
        fill="#00ADD822" stroke="#00ADD866" stroke-width="1"/>
  <circle cx="286" cy="155" r="4" fill="#00ADD8"/>
  <text x="295" y="159" class="tag-text">Go</text>
</g>
<g>
  <rect x="319" y="142" width="65" height="26" rx="5"
        fill="#3776AB22" stroke="#3776AB66" stroke-width="1"/>
  <circle cx="330" cy="155" r="4" fill="#3776AB"/>
  <text x="339" y="159" class="tag-text">Python</text>
</g>
<g>
  <rect x="392" y="142" width="94" height="26" rx="5"
        fill="#F7DF1E22" stroke="#F7DF1E66" stroke-width="1"/>
  <circle cx="403" cy="155" r="4" fill="#F7DF1E"/>
  <text x="412" y="159" class="tag-text">JavaScript</text>
</g>
<g>
  <rect x="494" y="142" width="50" height="26" rx="5"
        fill="#6E768122" stroke="#6E768166" stroke-width="1"/>
  <circle cx="505" cy="155" r="4" fill="#6E7681"/>
  <text x="514" y="159" class="tag-text">HTML</text>
</g>
<g>
  <rect x="552" y="142" width="79" height="26" rx="5"
        fill="#6E768122" stroke="#6E768166" stroke-width="1"/>
  <circle cx="563" cy="155" r="4" fill="#6E7681"/>
  <text x="572" y="159" class="tag-text">Makefile</text>
</g>
<g>
  <rect x="639" y="142" width="58" height="26" rx="5"
        fill="#89E05122" stroke="#89E05166" stroke-width="1"/>
  <circle cx="650" cy="155" r="4" fill="#89E051"/>
  <text x="659" y="159" class="tag-text">Shell</text>
</g>
<g>
  <rect x="705" y="142" width="43" height="26" rx="5"
        fill="#6E768122" stroke="#6E768166" stroke-width="1"/>
  <circle cx="716" cy="155" r="4" fill="#6E7681"/>
  <text x="725" y="159" class="tag-text">MDX</text>
</g>
<g>
  <rect x="756" y="142" width="43" height="26" rx="5"
        fill="#6E768122" stroke="#6E768166" stroke-width="1"/>
  <circle cx="767" cy="155" r="4" fill="#6E7681"/>
  <text x="776" y="159" class="tag-text">CSS</text>
</g>
<g>
  <rect x="28" y="176" width="94" height="26" rx="5"
        fill="#6E768122" stroke="#6E768166" stroke-width="1"/>
  <circle cx="39" cy="189" r="4" fill="#6E7681"/>
  <text x="48" y="193" class="tag-text">Dockerfile</text>
</g>
<g>
  <rect x="130" y="176" width="79" height="26" rx="5"
        fill="#36363622" stroke="#36363666" stroke-width="1"/>
  <circle cx="141" cy="189" r="4" fill="#363636"/>
  <text x="150" y="193" class="tag-text">Solidity</text>
</g>
<g>
  <rect x="217" y="176" width="72" height="26" rx="5"
        fill="#6E768122" stroke="#6E768166" stroke-width="1"/>
  <circle cx="228" cy="189" r="4" fill="#6E7681"/>
  <text x="237" y="193" class="tag-text">PLpgSQL</text>
</g>
<g>
  <rect x="297" y="176" width="50" height="26" rx="5"
        fill="#6E768122" stroke="#6E768166" stroke-width="1"/>
  <circle cx="308" cy="189" r="4" fill="#6E7681"/>
  <text x="317" y="193" class="tag-text">Mako</text>
</g>
<line x1="28" y1="234" x2="832" y2="234" stroke="#30363d" stroke-width="1"/>
<text x="28" y="270" class="section-label">FRAMEWORKS &amp; LIBRARIES</text>
<g>
  <rect x="28" y="282" width="72" height="26" rx="5"
        fill="#00000022" stroke="#00000066" stroke-width="1"/>
  <rect x="34" y="291" width="8" height="8" rx="2" fill="#000000"/>
  <text x="48" y="299" class="tag-text">Express</text>
</g>
<g>
  <rect x="108" y="282" width="72" height="26" rx="5"
        fill="#00968822" stroke="#00968866" stroke-width="1"/>
  <rect x="114" y="291" width="8" height="8" rx="2" fill="#009688"/>
  <text x="128" y="299" class="tag-text">FastAPI</text>
</g>
<g>
  <rect x="188" y="282" width="58" height="26" rx="5"
        fill="#00000022" stroke="#00000066" stroke-width="1"/>
  <rect x="194" y="291" width="8" height="8" rx="2" fill="#000000"/>
  <text x="208" y="299" class="tag-text">Flask</text>
</g>
<g>
  <rect x="254" y="282" width="101" height="26" rx="5"
        fill="#FFD21E22" stroke="#FFD21E66" stroke-width="1"/>
  <rect x="260" y="291" width="8" height="8" rx="2" fill="#FFD21E"/>
  <text x="274" y="299" class="tag-text">HuggingFace</text>
</g>
<g>
  <rect x="363" y="282" width="58" height="26" rx="5"
        fill="#4DABCF22" stroke="#4DABCF66" stroke-width="1"/>
  <rect x="369" y="291" width="8" height="8" rx="2" fill="#4DABCF"/>
  <text x="383" y="299" class="tag-text">NumPy</text>
</g>
<g>
  <rect x="429" y="282" width="65" height="26" rx="5"
        fill="#15045822" stroke="#15045866" stroke-width="1"/>
  <rect x="435" y="291" width="8" height="8" rx="2" fill="#150458"/>
  <text x="449" y="299" class="tag-text">Pandas</text>
</g>
<g>
  <rect x="502" y="282" width="65" height="26" rx="5"
        fill="#2D374822" stroke="#2D374866" stroke-width="1"/>
  <rect x="508" y="291" width="8" height="8" rx="2" fill="#2D3748"/>
  <text x="522" y="299" class="tag-text">Prisma</text>
</g>
<g>
  <rect x="575" y="282" width="58" height="26" rx="5"
        fill="#61DAFB22" stroke="#61DAFB66" stroke-width="1"/>
  <rect x="581" y="291" width="8" height="8" rx="2" fill="#61DAFB"/>
  <text x="595" y="299" class="tag-text">React</text>
</g>
<g>
  <rect x="641" y="282" width="94" height="26" rx="5"
        fill="#D71F0022" stroke="#D71F0066" stroke-width="1"/>
  <rect x="647" y="291" width="8" height="8" rx="2" fill="#D71F00"/>
  <text x="661" y="299" class="tag-text">SQLAlchemy</text>
</g>
<g>
  <rect x="743" y="282" width="50" height="26" rx="5"
        fill="#244C5A22" stroke="#244C5A66" stroke-width="1"/>
  <rect x="749" y="291" width="8" height="8" rx="2" fill="#244C5A"/>
  <text x="763" y="299" class="tag-text">gRPC</text>
</g>
<line x1="28" y1="340" x2="832" y2="340" stroke="#30363d" stroke-width="1"/>
<text x="28" y="376" class="section-label">INFRASTRUCTURE &amp; DEVOPS</text>
<g>
  <rect x="28" y="388" width="65" height="26" rx="5"
        fill="#2496ED22" stroke="#2496ED66" stroke-width="1"/>
  <rect x="34" y="397" width="8" height="8" rx="2" fill="#2496ED"/>
  <text x="48" y="405" class="tag-text">Docker</text>
</g>
<g>
  <rect x="101" y="388" width="122" height="26" rx="5"
        fill="#2088FF22" stroke="#2088FF66" stroke-width="1"/>
  <rect x="107" y="397" width="8" height="8" rx="2" fill="#2088FF"/>
  <text x="121" y="405" class="tag-text">GitHub Actions</text>
</g>
<g>
  <rect x="231" y="388" width="94" height="26" rx="5"
        fill="#4169E122" stroke="#4169E166" stroke-width="1"/>
  <rect x="237" y="397" width="8" height="8" rx="2" fill="#4169E1"/>
  <text x="251" y="405" class="tag-text">PostgreSQL</text>
</g>
<g>
  <rect x="333" y="388" width="58" height="26" rx="5"
        fill="#DC382D22" stroke="#DC382D66" stroke-width="1"/>
  <rect x="339" y="397" width="8" height="8" rx="2" fill="#DC382D"/>
  <text x="353" y="405" class="tag-text">Redis</text>
</g>
<text x="430" y="446" text-anchor="middle" class="subtitle">github.com/onirudda-islam/stats · auto-generated · do not edit</text>
</svg>